<svg version="1.1" xmlns="http://www.w3.org/2000/svg" width="24" height="32" viewBox="0 0 24 32">
<title>b</title>
<path id="icon-info" d="M16 17.152q-0.48 0.544-0.832 1.664-0.352 1.152-0.768 2.080-0.416 0.992-1.184 1.376-0.576-2.272-0.608-6.4-0.32 0.736-0.512 1.824-0.224 1.056-0.288 1.824-0.032 0.8-0.096 2.272-0.032 0.288-0.032 0.48-0.512-0.256-0.864-0.64-0.352-0.448-0.608-1.056t-0.352-1.184q-0.16-0.48-0.352-1.312-0.16-0.8-0.288-1.28-0.256 0.448-0.224 1.12t0.192 1.312q0.192 0.608 0.16 1.216t-0.448 0.864q-0.768-1.472-2.144-5.44-1.536 0.672-3.072 0.192-1.536-0.448-2.208-1.472-0.096-0.672-0.096-1.184 0-0.416 0.064-0.768 0.16-0.672 0.544-1.344 0.416-0.608 0.864-1.056 0.416-0.416 0.736-1.12 0.352-0.704 0.384-1.568 0.224-0.576 0.8-0.8t1.472-0.352q0.896-0.192 1.44-0.448 0.288-0.128 0.992-0.576 0.672-0.416 1.216-0.736 0.544-0.256 1.312-0.576t1.44-0.352q0.224-0.032 0.512-0.032 0.416 0 0.896 0.064 0.672 0.128 1.344 0.704t1.248 1.504q4.192-0.16 4.32 3.552 1.856 0.768 2.048 2.976 0.032 0.224 0.032 0.448 0 1.664-1.088 2.816-1.472 1.568-3.68 0.192-0.064-0.032-0.096-0.064-0.608 0.448-0.992 1.44-0.352 1.024-0.736 1.984-0.384 0.992-1.056 1.344-0.064-0.864 0.256-2.048t0.352-1.44zM3.648 28.352q0-0.256-0.352-0.544-0.288-0.192-0.288-0.512 0-0.096 0.032-0.224 0.224-0.352 0.736-0.512t1.088-0.16 1.248 0.032q0.064-0.416-0.32-0.896t-1.44-1.376q-0.96-0.896-1.024-0.928 0.544-0.096 1.504 0.032 0.96 0.16 2.24 0.512 1.28 0.32 1.824 0.416 0.32-0.192 0.352-0.832t-0.064-1.248q-0.064-0.576 0.032-1.12 0.64 0.448 1.728 1.376t1.344 1.152q0.224-0.224 1.344-1.024 1.088-0.832 1.44-1.504 0.32 0.192 0.352 0.832 0.064 0.608-0.032 1.216t0 1.152q0.448-0.128 2.592-0.48t2.976-0.8q0.16 0.448-0.352 1.024t-1.216 1.248q-0.736 0.672-0.896 1.248 0.672-0.032 1.248-0.032t1.088 0.16 0.736 0.512q0.032 0.128 0.032 0.224 0 0.32-0.288 0.512-0.352 0.288-0.352 0.544h-17.312zM16.32 26.432q0.704-0.032 1.184-0.384 0.448-0.32 0.896-0.96 0.48-0.672 0.704-0.896-0.8 0-2.016 0.32t-2.016 0.288q0-0.32 0.032-0.768v-0.8q0-0.384-0.128-0.672-0.16-0.256-0.512-0.288-0.128 0.16-0.384 0.544-0.32 0.416-0.512 0.608t-0.544 0.448q-0.288 0.256-0.736 0.32-0.608-0.16-1.344-0.928-0.736-0.8-1.12-0.992v1.632q0.032 0.352-0.128 0.64-0.16 0.224-0.48 0.256-0.32-0.032-0.896-0.16-0.608-0.128-1.088-0.256-0.448-0.128-0.96-0.128t-0.768 0.256q0.32 0.096 0.704 0.544 0.416 0.448 0.704 0.8t0.736 0.512q0.128 0.064 0.288 0.064 0.32 0 0.672-0.352-1.024 0.096-0.928-0.928 0.256 0.128 0.64 0.224 0.384 0.128 0.64 0.192 0.288 0.032 0.768 0.128 0.48 0.064 0.704 0.096 0.096-0.32 0-0.736-0.064-0.448-0.032-0.768 0.064-0.384 0.352-0.416 0.224 0.608 0.608 0.832 0.352 0.288 0.768 0.256 0.448-0.096 0.8-0.224t0.736-0.288l0.48-0.256v1.6q0.48 0.064 1.248-0.128l1.12-0.288q0.384-0.128 0.736 0.096-0.672 0.256-0.928 0.96z"></path>
</svg>
