<!-- Generated by IcoMoon.io -->
<svg version="1.1" xmlns="http://www.w3.org/2000/svg" width="26" height="32" viewBox="0 0 26 32">
<title>C</title>
<path d="M18.784 1.856q-0.096 0.128-0.352 0.384t-0.352 0.384l-0.256 0.32-0.384 0.448q-0.192 0.32-0.576 0.896-0.48 0.704-0.576 0.864-0.032 0.096-0.096 0.256-0.096 0.192-0.128 0.288-0.256 0.416-0.288 0.512 0 0.064-0.032 0.128v0.128q-0.032 0.096-0.128 0.256-0.064 0.16-0.096 0.224-0.512 1.152-0.736 2.016-0.096 0.288-0.32 0.864-0.192 0.576-0.224 0.64-0.096 0.256-0.544 1.824-0.48 1.536-0.832 2.304l-0.16 0.576q-0.16 0.32-0.192 0.448-1.28 3.232-3.008 5.184-0.096 0.16-0.352 0.384-0.224 0.224-0.32 0.352-0.096 0.064-0.192 0.224t-0.16 0.192q-0.128 0.16-0.352 0.48-0.256 0.288-0.352 0.384-0.032 0.064-0.192 0.192l-0.192 0.192q0 0.032-0.384 0.736-0.704 1.248-1.312 2.080-1.216 1.856-2.016 2.496-0.288 0.032-0.384 0.064v0q0-0.032 0.096-0.16 0.608-0.864 0.864-1.248 0.096-0.128 0.8-1.248 0.736-1.12 1.088-1.728 0.544-0.992 0.64-1.152 0.256-0.416 0.288-0.672 0.032-0.224 0-0.768-0.064-1.76-0.096-2.304-0.064-0.32-0.128-1.088-0.096-0.736-0.128-1.12-0.064-0.608 0.064-0.704 0.192-0.16 0.384 0 0.064-0.128 0.224-0.288 0.16-0.128 0.192-0.16 0.064-0.096 0.192-0.32 0.16-0.256 0.256-0.352 0.032 0.832 0.16 2.272 0.064 0.608 0.096 0.736 0.064-0.096 0.064-0.416 0-0.512-0.032-1.504-0.032-1.056-0.032-1.408 0.576-0.864 0.992-1.344 0 0.16-0.064 0.64t-0.032 0.736q0.064-0.064 0.096-0.416 0.128-1.024 0.224-1.248 0.032-0.096 0.416-0.64 0.352-0.48 0.384-0.544 0.064-0.064 0.096-0.256 0.064-0.16 0.096-0.256 0.16-0.32 0.576-1.088t0.576-1.248q0.064-0.064 0.224-0.448 0.16-0.32 0.224-0.48 0.512-1.568 0.704-2.016l0.128-0.32 0.192-0.288q0.096-0.192 0.16-0.288 0.192-0.416 0.576-0.832 0.384-0.448 0.576-0.64 0.224-0.192 0.768-0.704 0.448-0.352 0.8-0.544 0.128-0.064 0.416-0.256t0.416-0.32q0.864-0.416 1.792-0.48 0.096 0 0.128 0.128 0.032 0.032 0.032 0.064zM9.696 12.768q-0.128-0.192-0.8-1.28-0.16-0.224-0.448-0.608-0.32-0.384-0.448-0.576-0.48-0.736-1.28-1.824-0.096-0.128-0.256-0.288t-0.224-0.256q-0.032-0.032-0.064-0.128t-0.064-0.128q-0.032-0.128-0.224-0.256l-0.192-0.16q-0.064-0.096-0.192-0.256t-0.192-0.224q-0.128-0.128-1.248-1.088-0.672-0.544-0.992-0.736-0.096-0.096-0.48-0.32t-0.608-0.32q0.064-0.128 0.064-0.192 0.448-0.16 0.992-0.16 0.48 0 1.024 0.128 0.096 0.032 0.32 0.096t0.256 0.064l0.256 0.096q0.224 0.032 0.352 0.064 0.032 0 0.864 0.384 1.088 0.544 1.44 0.8 0.768 0.512 1.696 1.664 0.224 0.224 0.992 1.376 0.096 0.16 0.416 0.512t0.384 0.448q0.256 0.256 0.256 0.32 0 0-0.288 0.544-0.032 0.096-0.224 0.48t-0.32 0.576q-0.416 1.056-0.768 1.248zM13.728 12.416q0.16 0.064 0.288 0.192 0.096 0.064 0.192 0.256t0.16 0.288q0.064 0.128 0.16 0.384t0.128 0.32q0.128 0.288 0.192 0.32 0-0.096-0.224-0.608l-0.224-0.672q0.16 0.16 0.512 0.384 0.32 0.256 0.48 0.416 0.288 0.224 0.32 0.224t0.032 0.096q0.032 0.064 0.032 0.16 0.032 0.128 0.032 0.192 0.224 0.832 0.672 2.4 0.096 0.352 0.16 0.384 0-0.128-0.096-0.736-0.352-1.568-0.48-2.208 0.032-0.032 0.288 0.256 0.096 0.128 0.384 0.288t0.416 0.288q0.256-0.256 0.48-0.064 0.064 0.064 0.192 0.736 0.608 3.296 0.768 3.904 0.32 1.12 0.48 1.376 0.096 0.128 0.352 0.352t0.288 0.256q1.12 1.12 1.888 1.792 1.824 1.632 2.72 2.24-0.064 0.032-0.224 0.064t-0.192 0.032q-0.512-0.256-1.12-0.672t-0.896-0.608q-0.288-0.224-1.056-0.928-0.736-0.64-0.832-0.736-0.064-0.032-0.576-0.576l-0.16-0.192q-0.128-0.128-0.256-0.224-0.096-0.096-0.192-0.16-0.16-0.096-0.352-0.224t-0.416-0.256q-0.256-0.16-0.416-0.288-0.096-0.064-0.384-0.256t-0.448-0.288q-2.368-1.28-4.512-4.032 0.16-0.384 0.48-1.184 0.32-0.832 0.544-1.44t0.416-1.248z"></path>
</svg>
