<!-- Generated by IcoMoon.io -->
<svg version="1.1" xmlns="http://www.w3.org/2000/svg" width="29" height="32" viewBox="0 0 29 32">
<title>c</title>
<path d="M22.816 27.328q-0.672-0.864-2.688-3.456 0.032-0.96 0.128-3.776-1.024-1.28-4.096-5.12 2.080-3.232 8.384-12.96-0.832 0.416-3.328 1.536-1.824 2.176-7.296 8.544-1.088-1.312-4.288-5.184-1.12-0.8-4.544-3.072 1.76 2.688 7.040 10.816-1.152 1.504-4.608 6.048 0.288 1.056 1.216 4.032-0.768 1.312-3.072 5.216 0.224-0.16 0.896-0.64 0.416-0.608 1.664-2.432 1.44-2.272 5.76-9.152 1.632 1.952 6.592 7.872 0.672 0.768 2.752 3.072-0.128-0.32-0.512-1.344z"></path>
</svg>
