<!-- Generated by IcoMoon.io -->
<svg version="1.1" xmlns="http://www.w3.org/2000/svg" width="26" height="32" viewBox="0 0 26 32">
<title>z</title>
<path d="M5.824 11.328q0.032-0.192 0.128-0.224 0.128-0.064 0.192 0.032t0.096 0.192q1.92 0.288 1.632-1.632 1.856 0.384 4.992 0.448t5.696-0.096q2.56-0.128 4.16-0.352v3.296h-8.64q-0.352 0.032-0.544 0.192-0.192 0.192-0.256 0.544-0.064 0.288-0.064 0.64v0.8q0.032 0.448 0.032 0.704-0.544 0-1.024 0.16-0.48 0.192-0.672 0.352t-0.48 0.064-0.704-0.576q-0.32 0.096-0.64 0.928-0.192 0.768 0.224 0.736-0.448 0.928-0.832-0.16-0.352-1.024-0.384-1.088-1.344 0.32-1.824 0.992-0.48 0.64-0.448 1.824 0.032 1.12 0.192 2.912-0.832 0.096-1.44 0.128h-0.96q-0.32-0.032-1.088-0.064t-1.472-0.064q0.064-1.056 0.224-2.016t0.544-2.080q0.416-1.12 0.608-1.568 0.16-0.48 0.768-1.792 0.64-1.344 0.736-1.568 1.952 0.096 2.496-0.416-0.352-0.896-1.248-1.248z"></path>
</svg>
