<!-- Generated by IcoMoon.io -->
<svg version="1.1" xmlns="http://www.w3.org/2000/svg" width="27" height="32" viewBox="0 0 27 32">
<title>m</title>
<path d="M4.48 2.912h0.704q0.576 2.752 2.688 4.192t5.408 1.44q3.296-0.032 5.44-1.408 2.24-1.44 2.752-4.224h0.704q0.352 0.992 1.088 3.776 0.032 0.096 0.128 0.544 0.128 0.448 0.16 0.608 0.064 0.16 0.128 0.576 0.096 0.352 0.128 0.608 0.032 0.224 0.064 0.576 0.064 0.32 0.064 0.608 0 0.32-0.032 0.608-0.064 0.448-0.192 1.024t-0.32 1.28q-0.224 0.704-0.288 0.992-0.192 0.8-0.48 1.632-0.096 0.288-0.256 0.832t-0.224 0.736q-0.096 0.384-0.448 1.12-0.32 0.768-0.448 1.12-0.16 0.48-0.512 1.184t-0.512 1.024q-0.928 2.304-2.112 4.224-0.128-1.568-0.224-2.496-0.096-0.864-0.416-2.016-0.288-1.184-0.736-1.984-3.456-0.544-6.784 0-0.16 0.288-0.288 0.544-0.16 0.288-0.288 0.64-0.096 0.384-0.192 0.64t-0.16 0.704q-0.064 0.512-0.128 0.736-0.032 0.224-0.096 0.768-0.032 0.608-0.064 0.8 0 0.16-0.032 0.832-0.064 0.64-0.064 0.768-0.224-0.32-0.576-1.056-0.352-0.672-0.576-0.992-0.48-0.768-1.088-2.144-0.128-0.288-0.48-1.056-0.352-0.704-0.512-1.152-0.096-0.16-0.256-0.512l-0.192-0.576q-0.16-0.416-0.32-0.8-0.16-0.448-0.352-1.024-0.16-0.544-0.288-0.896-0.128-0.448-0.864-3.232-0.416-1.568-0.416-2.304v-0.128q0.032-0.96 0.736-3.648 0.384-1.6 0.96-3.392 0-0.032 0.032-0.064 0-0.032 0.032-0.032zM16.288 14.432q0.064 0.032 0.512 0.16 0.48 0.16 0.736 0.224 0.928 0.224 1.312 0.192h0.16q0.256-0.064 1.184-0.832 0.896-0.672 1.056-0.896 0.224-0.384 0.384-1.216-2.912 1.856-5.344 2.368z"></path>
</svg>
