<!-- Generated by IcoMoon.io -->
<svg version="1.1" xmlns="http://www.w3.org/2000/svg" width="32" height="32" viewBox="0 0 32 32">
<title>hyphen</title>
<path d="M9.824 1.28l0.064-0.064q0.064-0.032 0.16-0.032 0.224-0.032 0.48-0.032 1.024 0 2.080 0.128 1.28 0.128 3.136 0.448 1.856 0.256 2.912 0.384 1.44 0.192 4.288 0.544 0.256 0.032 0.896 0.096 0.64 0.096 0.928 0.128t0.864 0.128 0.8 0.224 0.64 0.288q0.352 0.192 0.544 0.48 0.224 0.256 0.32 0.576 0.16 0.256 0.16 0.96v0.512q-0.096 1.152-0.224 1.984-0.128 0.8-0.32 1.952t-0.256 1.504l-1.696 13.696q-0.064 0.448-0.128 1.248-0.096 0.8-0.16 1.248-0.032 0.48-0.16 1.088t-0.288 0.992-0.448 0.672-0.736 0.512q-0.416 0.128-1.088 0.128t-1.152-0.096q-0.512-0.064-1.248-0.192t-1.088-0.16q-1.696-0.224-4.8-0.576-3.104-0.384-4.16-0.512-0.224 0-0.928-0.096-0.672-0.064-0.928-0.128-0.256-0.032-0.832-0.128t-0.832-0.224l-0.608-0.288t-0.576-0.448-0.32-0.608q-0.16-0.256-0.16-0.96v-0.416q0.064-1.024 0.16-1.728 0.128-0.704 0.32-1.792 0.16-1.088 0.224-1.504 0.512-4.192 1.6-12.608 0.064-0.512 0.128-1.728 0.096-1.184 0.192-1.92 0.128-0.736 0.352-1.664 0.224-0.864 0.704-1.376 0.48-0.48 1.184-0.64zM22.496 4.384q-0.576-0.096-1.92-0.288-1.376-0.16-2.112-0.256-0.384-0.064-1.728-0.224-1.28-0.192-1.856-0.256-0.544-0.064-1.856-0.16-1.056-0.128-1.568-0.128h-0.16q-0.384 0.032-1.376 0.032-0.256 0.512-0.416 1.44-0.192 0.896-0.352 2.528-0.16 1.568-0.192 1.888-0.096 0.768-0.576 4.416t-0.672 5.12q-0.16 1.44-0.448 4.032t-0.448 4.576q0.416 0.192 0.928 0.288l0.896 0.224q0.384 0.064 1.056 0.128t0.96 0.096q9.472 1.216 12.48 1.376 0.288-0.832 0.448-1.728 0.192-0.832 0.32-2.304 0.16-1.472 0.192-1.856 1.728-13.312 2.144-18.208-0.384-0.224-0.896-0.352-0.512-0.16-0.864-0.16-0.32-0.064-1.056-0.128t-0.928-0.096zM23.392 14.944q0.064 0.032 0.064 0.8v1.44h-13.856q-0.064-0.352-0.096-0.736-0.032-0.256-0.032-0.544v-0.384q0.064-0.448 0.224-0.576h13.696z"></path>
</svg>
