<!-- Generated by IcoMoon.io -->
<svg version="1.1" xmlns="http://www.w3.org/2000/svg" width="32" height="32" viewBox="0 0 32 32">
<title>plus</title>
<path d="M13.216 32h-0.832q-1.248-1.12-2.016-2.784-0.768-1.696-1.632-4.384l-3.84-11.712q-0.128-0.416-0.704-1.856t-0.864-2.528q-0.16-0.672-0.16-1.28 0-0.256 0.032-0.512 0.064-0.288 0.16-0.512 0.064-0.256 0.224-0.448 0.192-0.16 0.32-0.32 0.16-0.16 0.448-0.288 0.288-0.16 0.416-0.256t0.512-0.256q0.384-0.128 0.544-0.16 0.128-0.064 0.544-0.16t0.576-0.16q3.072-0.992 9.152-2.88 0.256-0.096 1.376-0.544t1.92-0.608q0.384-0.096 0.8-0.096 0.32 0 0.608 0.064 0.544 0.128 0.992 0.48 0.416 0.416 0.736 1.088t0.512 1.216 0.448 1.44q0.256 0.928 0.416 1.312 1.728 5.344 5.12 16 0.064 0.224 0.288 0.832t0.32 0.96q0.128 0.352 0.224 0.832 0.032 0.224 0.032 0.448 0 0.192-0.032 0.352-0.064 0.416-0.256 0.704-0.192 0.352-0.384 0.544-0.16 0.192-0.608 0.384-0.48 0.224-0.672 0.288l-0.832 0.256-0.864 0.288q-4.32 1.408-13.024 4.256zM15.584 9.184q-0.16 0.384-0.128 2.848 0.032 2.496 0 3.008h-5.856v2.016q0.512 0.032 3.008 0t2.848 0.128v5.76h2.048q0-0.512-0.032-3.008t0.128-2.88h5.792v-2.016q-0.544-0.032-3.040 0t-2.848-0.096v-5.76h-1.92z"></path>
</svg>
