<!-- Generated by IcoMoon.io -->
<svg version="1.1" xmlns="http://www.w3.org/2000/svg" width="26" height="32" viewBox="0 0 26 32">
<title>R</title>
<path d="M16.896 11.872q0 0.064-0.096 0.224-0.064 0.16-0.064 0.288 0 0.16 0.096 0.224h0.032q0.064 0 0.096 0l0.064 0.064q0.064 0.064 0.128 0.096 0.288 0.064 0.512-0.16 0.192-0.256 0.192-0.512 0.032-0.288-0.128-0.576-0.192-0.288-0.768-0.384t-0.96 0.096q-0.32 0.096-0.672 0.736t-0.288 1.152q0.032 0.448 0.448 1.024 0.192 0.32 0.512 0.448 0.032 0.032 0.192 0.032 0.128 0.032 0.192 0.064 0.032 0 0.128 0.064t0.192 0.096q1.28 0.416 2.336-0.544 0.384-0.384 0.544-0.672 0.032-0.064 0.096-0.256 0.096-0.16 0.128-0.256 0.096-0.224 0.192-1.12 0-0.096 0.064-0.256 0.032-0.128 0.032-0.224 0.064-0.704-0.512-1.888-0.096-0.256-0.352-0.512t-0.384-0.416q-0.064-0.064-0.32-0.16-0.256-0.16-0.352-0.192-0.096-0.064-0.32-0.192-0.256-0.096-0.384-0.128-0.128-0.064-0.352-0.16-0.224-0.064-0.384-0.064-0.16-0.032-0.384-0.064-0.256 0-0.48 0.032-0.224 0-0.448 0.064-1.184 0.192-1.952 0.768-0.032 0.064-0.48 0.48-1.312 1.088-1.472 2.272-0.064 0.384-0.096 1.248-0.032 0.768 0.064 1.248 0.032 0.096 0.128 0.416 0.128 0.288 0.16 0.416 0 0.096 0.064 0.416 0.096 0.256 0.16 0.384 0.352 0.992 0.96 1.632 0.064 0.064 0.16 0.128 0.128 0.064 0.192 0.128 0.512 0.448 0.544 0.544 0.064 0.128-0.032 0.448-0.128 0.288-0.128 0.416 0 0.064 0.032 0.192 0.032 0.096 0.032 0.16 0 0.128-0.16 0.608-0.32 0.928-0.864 1.6 0 0.448-0.32 0.736-0.352 0.416-1.024 0.832-1.056 0.608-1.536 1.088-0.064 0.096-0.32 0.32-0.256 0.192-0.352 0.288-0.064 0.064-0.16 0.256-0.096 0.224-0.128 0.256-0.032 0.064-0.16 0.224t-0.16 0.224q-0.096 0.192-0.16 0.544t-0.128 0.544q0 0.032-0.064 0.096l-0.128 0.128v0.16q-0.032 0.096-0.064 0.16-0.096 0.192-0.512 0.64-0.384 0.416-0.416 0.416-0.384 0.448-0.96 1.024 0-0.192-0.256-0.896-0.576-1.376-1.152-1.888-0.224-1.088-0.288-1.216-0.096 0.128-0.224 0.8-0.192 0.96-0.128 1.472-0.064 0-0.128-0.032-0.064-0.064-0.128-0.128-0.032-0.096-0.064-0.128l-0.224-0.224q-0.032-0.032-0.064-0.096 0-0.032-0.096-0.736-0.224-1.024-0.288-1.984-0.032-0.352 0-1.088 0-0.768-0.032-1.184-0.032-0.544-0.128-1.6t-0.128-1.504q-0.032-0.32-0.032-0.672 0-1.152 0.256-2.528 0-0.128 0.096-0.352 0.064-0.224 0.064-0.384 0.128-0.832 0.192-0.992l0.064-0.16q0.096-0.128 0.128-0.192v-0.128q0.032-0.096 0.032-0.128l0.096-0.192q0.096-0.096 0.128-0.16 0.032-0.096 0.064-0.224t0.064-0.128q0.064-0.128 0.832-1.056 0.736-0.8 1.6-1.024 0.096-0.192 0.448-1.216 0.32-0.992 0.608-1.472 0.256-0.448 1.056-1.248 0.864-0.896 1.184-1.12 0.064-0.032 0.224-0.128 0.16-0.064 0.224-0.096 0.096-0.064 0.352-0.256 0.256-0.224 0.384-0.32 0.832-0.448 1.888-0.672 0.928-0.192 1.312-0.224 0.128-0.032 0.288-0.032 0.256 0 0.64 0.032 0.576 0.064 0.8 0.032 0.064 0 0.288-0.032h0.352q0.384 0.032 1.024 0.256 0.864 0.288 0.928 0.288 0.064 0.032 0.16 0.128t0.128 0.096q0.128 0.064 0.352 0.16 0.224 0.064 0.384 0.16 0.192 0.128 0.32 0.224 0.064 0.032 0.128 0.128l0.16 0.16 0.448 0.224t0.512 0.32q0.064 0.096 0.224 0.288 0.192 0.224 0.288 0.288 0.576 0.608 0.864 1.28 0.064 0.128 0.128 0.384 0.064 0.288 0.128 0.416t0.192 0.384q0.096 0.256 0.16 0.48 0.096 0.224 0.128 0.416 0.128 0.544 0.128 1.184 0 0.224-0.032 0.448 0 0.128-0.032 0.416-0.064 0.288-0.096 0.448 0 0.096 0.032 0.256v0.224q0 0.16-0.064 0.352-0.096 0.192-0.096 0.224-0.032 0.128-0.064 0.352-0.032 0.16-0.064 0.288-0.032 0.064-0.128 0.224-0.096 0.128-0.128 0.224-0.032 0.064-0.096 0.224-0.032 0.192-0.096 0.288-0.032 0.064-0.192 0.192l-0.192 0.192q-0.064 0.064-0.128 0.224-0.064 0.128-0.128 0.224t-0.16 0.192l-0.192 0.096t-0.192 0.128q-0.064 0.032-0.224 0.192t-0.224 0.16-0.256 0.096q-0.16 0.032-0.224 0.064t-0.224 0.192q-0.16 0.128-0.288 0.16-0.064 0.032-0.288 0.096t-0.32 0.096q-0.032 0.032-0.256 0.128-0.224 0.128-0.352 0.16-0.704 0.192-2.048 0.064-1.536-0.16-2.112-0.928-0.96-0.448-1.12-1.024-0.128-0.064-0.224-0.224t-0.16-0.224q-0.032-0.128-0.128-0.384-0.032-0.224-0.096-0.32-0.032-0.032-0.064-0.128l-0.096-0.096v-0.192q-0.032-0.128-0.064-0.192 0-0.032-0.032-0.096-0.064-0.096-0.096-0.128v-0.224q-0.032-0.096-0.032-0.224v-0.256l-0.032-0.704q0-0.128 0.352-1.088 0-0.032 0.064-0.256 0.096-0.224 0.128-0.32 0.064-0.128 0.288-0.32l0.32-0.32q0.064-0.064 0.16-0.16 0.064-0.16 0.096-0.224 0.544-0.576 1.568-0.864h0.224q0.128-0.032 0.224-0.032 0.032 0 0.192-0.064t0.224-0.064 0.224 0.032q0.128 0.032 0.16 0.032h0.256t0.192 0.032q0.64 0.128 1.344 0.768 0.544 0.448 0.576 0.448 0.352 0.512 0.416 1.28t-0.192 1.312q-0.352 0.832-0.768 1.056h-0.128l-0.096 0.064t-0.064 0.064q-0.736 0.256-1.44-0.064-0.416-0.192-0.512-0.768t0.288-0.864q0.032-0.032 0.256-0.096 0.224-0.032 0.32-0.032zM8.32 16.608q0.032 0 0.16-0.032l0.16-0.16q0.096-0.064 0.192-0.16t0.128-0.16q0.032-0.096 0.032-0.192-0.032-0.128-0.544-0.224-0.32-0.064-0.544-0.064-0.128 0-0.224 0.032-0.864 0.288-1.504 1.152-0.256 0.352-0.256 0.512v0.032h0.064q0.096 0 0.192-0.064 0.16-0.064 0.224-0.064 0.16-0.032 0.544 0 0.384 0.064 0.576 0.032 0.192-0.16 0.8-0.64z"></path>
</svg>
