<!-- Generated by IcoMoon.io -->
<svg version="1.1" xmlns="http://www.w3.org/2000/svg" width="28" height="32" viewBox="0 0 28 32">
<title>T</title>
<path d="M13.408 22.4h-0.448q-1.088-0.064-1.536-0.352-0.032 0-0.16-0.096t-0.224-0.128q-0.064 0-0.256 0.032h-1.792q-1.056 0-2.144-0.064-0.768-0.032-2.208-0.064-1.472-0.064-2.144-0.096-0.064-0.128-0.064-0.256 0-0.224 0.192-0.48-0.064-0.224-0.096-0.448 0-0.256 0.064-0.704 0.064-0.48 0.064-0.576l0.096-0.864q0.032-0.576 0.064-1.024 0.032-0.512 0.064-0.864 0-0.224 0.064-1.792t0.128-2.368q0-0.16 0.064-0.64t0.064-0.736q0-0.096-0.032-0.352-0.032-0.224-0.032-0.416 0.032-0.192 0.064-0.288l0.096-0.096q0.096-0.064 0.096-0.096 0.992-0.064 2.752-0.352t2.304-0.384h0.256q0.128-0.032 0.256-0.032 0.128-0.032 0.224-0.032 0.064 0 0.16 0.032h0.288q0.096-0.032 0.128-0.032 0.8-0.16 1.472 0 0.096 0 0.288 0.032 0.192 0 0.288 0.032 0.16 0.064 0.448 0.16 0.288 0.128 0.352 0.16l0.832 0.288q1.504-0.832 3.072-0.864h0.288q0.32 0 0.928 0.032 1.28 0.064 2.368 0.288 0.64 0.128 1.824 0.192h0.64q0.064 0.032 0.224 0.096 0.128 0.064 0.192 0.064 0.064 0.128 0.16 0.672 0.16 0.928 0.736 5.248 0.032 0.416 0.128 0.896t0.192 1.088q0.128 0.576 0.192 0.864t0.128 0.832q0.032 0.48 0.064 0.704 0.032 0.128 0.064 0.352l0.096 0.384q0 0.064 0 0.224 0.064 0.128 0.064 0.192v0.256q-0.384 0-1.088 0.064t-0.896 0.064q-0.832 0.032-1.952 0.16-0.672 0.064-2.048 0.128-1.408 0.096-2.080 0.192-0.032 0.032-0.16 0.064h-0.064q-0.064 0.032-0.16 0.128-0.128 0.096-0.16 0.096h-0.064t-0.096 0.064-0.064 0.096q-0.032 0.032-0.064 0.032-0.064 0.032-0.16 0.032t-0.16 0.032q-0.032 0-0.128 0.032-0.064 0.064-0.128 0.096-0.32 0.064-0.928 0.064t-0.992 0.032zM12.8 17.056v0.096q0.032 0.096 0.032 0.128v0.288q0.032 0.096 0.032 0.128l0.064 0.8q0 0.032-0.032 0.128v0.128q0.032 0.032 0.032 0.096 0.032 0.096 0.032 0.16v0.672q0.096 0 0.288-0.032t0.288 0q-0.224-2.368-0.288-3.232-0.032-0.16-0.064-0.544t-0.064-0.608v-1.12q-0.032-0.448-0.16-1.408t-0.16-1.44q-0.064 2.24-0.064 3.648 0 1.44 0.064 2.112zM23.456 20h-0.608q-0.416 0.032-0.576 0.032-0.192 0.032-0.608 0.032h-0.64q-0.192 0.032-0.768 0.064-0.576 0.064-0.864 0.064-1.568 0.064-1.728 0.064 1.472 0.064 2.144 0.064h0.352t0.384-0.032q0.256-0.032 0.384-0.064 0.384 0 1.12-0.032h0.992q0.544-0.032 0.672-0.096-0.096-0.096-0.192-0.096h-0.064zM8.48 20.32q-0.608-0.032-4.64-0.128h-0.032q0 0.032 0.032 0.032 0.096 0 0.32 0.064 0.224 0.032 0.32 0.032 0.768 0.032 2.304 0.064 1.536 0 2.080 0.032 0.224 0 0.256-0.032-0.096-0.032-0.64-0.064zM14.944 21.44q0.064-0.032 0.128-0.032 0.064 0.032 0.128 0.032 0.096 0 0.096-0.064-0.064 0.032-0.192-0.032l-0.128-0.032q0 0.064-0.032 0.128z"></path>
</svg>
