<!-- Generated by IcoMoon.io -->
<svg version="1.1" xmlns="http://www.w3.org/2000/svg" width="32" height="32" viewBox="0 0 32 32">
<title>t</title>
<path d="M15.872 24.128h-0.576q-1.376-0.064-2.016-0.416-0.032-0.032-0.224-0.192-0.16-0.128-0.224-0.16-0.096 0-0.32 0.032h-0.32q-0.192 0.032-0.704 0-3.392-0.032-4.096-0.064-0.864-0.064-2.72-0.064-1.888-0.064-2.88-0.128-0.096-0.192-0.096-0.352 0-0.288 0.288-0.576-0.096-0.192-0.096-0.416-0.032-0.256-0.032-0.416 0.032-0.16 0.064-0.48t0.064-0.416q0.064-0.352 0.128-1.856 0.32-4.992 0.416-7.424 0-0.288 0.064-0.896 0.096-0.608 0.096-0.928v-0.48q-0.032-0.288-0.032-0.512t0.064-0.416q0.032-0.064 0.192-0.288 1.312-0.128 3.584-0.448 2.304-0.352 2.976-0.448 0.128 0 0.32-0.032t0.352-0.032q0.16-0.032 0.288-0.064 0.064 0 0.16 0.032 0.128 0.064 0.192 0.064 0.128 0 0.352-0.064 0.192-0.064 0.288-0.064 0.736-0.064 2.144 0.096 0.224 0.032 0.672 0.192 0.448 0.192 0.48 0.192 0.416 0.16 1.184 0.384 0.96-0.512 2.464-0.864 0.704-0.192 1.824-0.192 0.544 0 1.216 0.064 1.632 0.064 3.040 0.32 1.184 0.192 2.336 0.224h0.448t0.384 0.032q0.096 0 0.256 0.096 0.192 0.096 0.32 0.064 0.096 0.16 0.192 0.832 0 0.16 0.064 0.448t0.096 0.448q0.16 0.96 0.352 2.88 0.256 1.888 0.48 3.36t0.512 2.72q0.096 0.576 0.384 1.792 0.288 1.184 0.416 1.856 0 0.064 0.064 0.256t0.064 0.224-0.032 0.32h-0.704q-0.384 0.032-0.864 0.096-0.448 0.032-0.64 0.032-2.592 0.16-3.552 0.288-0.736 0.064-2.464 0.16-0.576 0.032-2.464 0.192-0.032 0.064-0.128 0.096h-0.128q-0.064 0.032-0.192 0.128t-0.192 0.128q-0.032 0-0.096 0.032t-0.128 0.096q-0.032 0.032-0.064 0.096-0.064 0.096-0.096 0.128h-0.16q-0.16 0.032-0.224 0.064-0.032 0-0.16 0.032t-0.16 0.064q-0.448 0.096-1.248 0.064-0.8 0-1.248 0.064zM23.52 8.16q-0.352 0-0.992-0.032h-0.896q-1.312-0.064-1.728-0.064h-0.192q-0.096 0-0.576 0.032-0.512 0.064-0.736 0.128-0.128 0.032-0.256 0.096l-0.288 0.16q-0.16 0.064-0.224 0.096-0.64 0.256-0.768 0.32 0.384 3.904 1.184 11.712 0.352 0 1.024-0.224 0.672-0.256 0.832-0.288 0.128-0.032 0.288-0.064 0.128 0 0.288-0.032 0.224-0.032 0.288-0.032 1.472-0.256 2.56-0.128 0.16 0 0.544 0.096t0.576 0.128q0.352 0.032 1.12 0.032 0.736 0.032 1.152 0.064 0.672 0.096 2.272 0.064-0.224-1.152-0.64-3.68t-0.736-3.808l-0.224-1.024q0-0.224 0-0.576t0-0.544-0.128-0.576q-0.128-0.32-0.128-0.384-0.256-0.864-0.288-0.992-0.352-0.032-1.472-0.192-1.152-0.224-1.856-0.288zM13.824 8.608q-0.256 0-0.768-0.096-0.48-0.128-0.736-0.16h-0.928q-0.992 0-1.088 0.032-1.12 0.192-3.36 0.48-2.24 0.352-2.464 0.384 0.064 0.096 0.032 0.608-0.096 1.184-0.384 4.864-0.32 3.712-0.448 5.696 0.864-0.032 2.624 0.064t2.688 0.064q2.208-0.128 2.592-0.16 0.832-0.032 1.312-0.032h1.344q0.032 0 0.928 0.224 0.16 0.032 0.48 0.096t0.384 0.096q-0.064-1.088-0.256-3.232-0.16-2.176-0.192-2.464-0.032-0.416-0.192-2.528-0.192-2.112-0.256-3.264-0.704-0.256-1.312-0.672zM28.8 21.024q-0.256 0.032-0.768 0.032-0.544 0.032-0.768 0.032-0.256 0.032-0.8 0.032t-0.8 0.032q-0.224 0-0.928 0.064-0.768 0.064-1.184 0.064-2.016 0.064-2.176 0.096 1.696 0.096 2.528 0.096 0.448 0 0.64-0.032 0.192 0 0.48-0.064 0.352-0.032 0.544-0.032 0.512-0.032 1.408-0.064h1.312q0.704-0.064 0.864-0.096-0.128-0.192-0.288-0.192-0.032 0-0.064 0.032zM3.52 21.28q0 0.032 0.16 0.064 0.192 0.032 0.224 0.032 0.96 0.128 2.912 0.192 1.92 0.096 2.56 0.128 0.704 0.064 1.952 0.16 1.248 0.064 1.76 0.096l0.16 0.032q0.16 0 0.288 0.032h0.32q0.192 0 0.256-0.032 0.096-0.064 0.096-0.096 0-0.128-0.512-0.192-0.64-0.064-2.016-0.128-5.952-0.288-8.16-0.352v0.064zM18.272 22.688h-0.544t-0.32 0.032-0.288 0.032q-0.832 0.032-1.696-0.128-0.48-0.064-0.48 0.096 0 0.128 0.288 0.16 0.096 0.032 0.16 0.032t0.256 0.064q0.192 0.032 0.288 0.032 0.16 0.032 0.48 0.032 0.32-0.032 0.448-0.032 0.064 0 0.16 0.032t0.16 0.032q0.128 0 0.416-0.032 0.256-0.032 0.288-0.032t0.288 0.032q0.288 0 0.32-0.032 0.288-0.064 0.672-0.256 0.288-0.16 0.288-0.32v-0.064q-0.064-0.128-0.096-0.128t-0.128 0.064q-0.736 0.352-0.96 0.384zM21.632 9.472q1.408 0 1.76 0.032 0.064 0 0.224 0.032 0.16 0.064 0.256 0.064 0.512 0.032 1.408 0.256 0.128 0.032 0.448 0.064 0.352 0.032 0.448 0.096 0.128 0.032 0.352 0.224t0.256 0.32q0.064 0.16 0.064 0.32 0 0.256-0.256 0.416-0.352 0.32-0.736 0.064-0.032 0-0.096-0.064-0.096-0.032-0.128-0.032-0.064-0.032-0.224-0.032-0.16-0.032-0.224-0.032-0.096-0.032-0.512-0.128-0.448-0.128-0.672-0.16h-0.384q-0.096 0-0.224-0.064-0.128-0.032-0.192-0.032-0.256-0.032-0.64-0.032h-0.608q-1.344-0.032-2.176 0.384-0.064 0.032-0.384 0.192-0.32 0.192-0.48 0.192-0.032 0.032-0.064 0.032-0.32 0-0.512-0.288-0.16-0.16-0.16-0.384 0-0.128 0.064-0.256 0.096-0.192 0.736-0.608 1.024-0.544 2.656-0.576zM10.464 10.016h0.416q1.568 0 2.496 0.256 0.384 0.096 0.928 0.48 0.32 0.224 0.384 0.416 0.032 0.096 0.032 0.224 0 0.256-0.192 0.448-0.224 0.256-0.608 0.16-0.192-0.032-0.448-0.224-0.256-0.224-0.352-0.256-0.064-0.032-0.128-0.032h-0.16q-0.096-0.032-0.128-0.032-1.024-0.192-2.144-0.128-0.256 0.032-0.8 0.128-0.544 0.064-0.8 0.064h-0.384q-0.288 0-0.352 0.032-0.224 0.064-0.576 0.16-0.352 0.128-0.512 0.16-0.064 0.032-0.256 0.064-0.224 0.032-0.32 0.064-0.288 0.064-0.512 0.064-0.544 0-0.672-0.384-0.064-0.128-0.064-0.256t0.064-0.224q0.096-0.256 0.288-0.352 0.064-0.032 0.448-0.096 0.064-0.032 0.448-0.128 0.384-0.064 0.608-0.128 0.736-0.224 1.056-0.288h0.512t0.512-0.032q1.184-0.16 1.216-0.16zM22.752 12.96q0.992-0.096 1.984 0.16 0.864 0.192 1.024 0.256 0.064 0.032 0.224 0.128t0.256 0.128q0.032 0 0.16 0.032 0.128 0 0.192 0.032 0.448 0.096 0.64 0.256 0.16 0.192 0.16 0.416 0 0.16-0.064 0.32-0.16 0.416-0.576 0.416-0.096 0-0.288-0.064-0.16-0.064-0.224-0.096h-0.128t-0.16-0.032q-0.128-0.032-0.352-0.16-0.256-0.128-0.384-0.16-0.288-0.096-0.864-0.192-0.864-0.224-1.952-0.192-0.096 0.064-0.48 0.064h-0.48t-0.352 0.064-0.384 0.064q-0.64 0.096-0.832 0.192-0.064 0-0.288 0.16-0.192 0.192-0.384 0.224-0.416 0.064-0.672-0.256-0.16-0.192-0.16-0.416 0-0.128 0.096-0.32 0.064-0.096 0.384-0.352 0.256-0.192 0.48-0.256 0.416-0.192 1.792-0.384 0.224-0.064 0.608-0.064h0.192q0.512 0.032 0.832 0.032zM10.496 13.312q0.448-0.032 0.8-0.032 0.704 0 1.024 0.064 0.32 0.032 0.896 0.256 0.096 0 0.416 0.128 0.288 0.096 0.448 0.16 0.256 0.096 0.448 0.416 0.128 0.192 0.128 0.384 0 0.128-0.064 0.256-0.096 0.224-0.32 0.32-0.192 0.096-0.48 0.032-0.096-0.032-0.224-0.096-0.16-0.128-0.192-0.16t-0.576-0.224q-0.96-0.32-3.104-0.128h-0.416q-0.288 0.032-0.416 0.064t-0.384 0.096q-0.288 0.096-0.48 0.128-0.128 0.032-1.12 0.064-0.192 0.032-0.672 0.256-0.384 0.256-0.544 0.256l-0.032-0.032q-0.448-0.096-0.512-0.576v-0.128q0-0.416 0.384-0.544 0.032 0 0.48-0.288 0.448-0.224 0.576-0.256 1.408-0.064 1.44-0.096 0.096 0 0.384-0.096 0.32-0.096 0.448-0.128 0.16 0 0.448-0.032h0.416q0.512-0.064 0.8-0.064zM23.808 16.608q0.224 0.064 0.96 0.16 0.16 0.032 0.704 0.064 0.576 0.032 0.8 0.128l0.288 0.096q0.224 0.096 0.352 0.128 0.48 0.16 0.576 0.288 0.192 0.192 0.192 0.448 0 0.096-0.064 0.256-0.16 0.416-0.544 0.416h-0.128q-0.128 0-0.768-0.224-0.032-0.032-0.096-0.096-0.128-0.064-0.16-0.096-0.224-0.032-0.768-0.064t-0.704-0.064q-0.096-0.032-0.224-0.064-0.16-0.064-0.224-0.064-0.224 0-0.96 0-0.096 0-0.512 0-0.384 0-0.448 0-0.096 0-0.352 0.096-0.288 0.064-0.416 0.096-0.192 0.032-0.48 0.064-0.288 0-0.544 0.032-0.224 0.064-0.416 0.128l-0.256 0.128t-0.32 0.128q-0.544 0.032-0.672-0.512v-0.192q0-0.384 0.32-0.544 0.096-0.064 0.288-0.224t0.32-0.256q0.192-0.096 0.48-0.128 0.128 0 0.448-0.096t0.448-0.128h0.288q0.384 0 1.152 0.032 1.344 0.032 1.44 0.064zM11.488 16.896h0.832q0.736 0.064 0.768 0.064 0.16 0.032 0.512 0.192 0.32 0.16 0.48 0.224 0.736 0.288 0.864 0.48 0.16 0.192 0.16 0.384 0 0.16-0.096 0.352-0.224 0.384-0.672 0.352-0.128-0.032-0.416-0.192-0.288-0.128-0.352-0.128-0.096-0.064-0.384-0.192-0.352-0.16-0.896-0.224-0.384-0.032-1.216 0.064-0.832 0.064-1.088 0.064-0.128 0-0.64-0.032-0.512 0-0.576 0.032-0.032 0-0.16 0.032-0.096 0.032-0.16 0.064-0.096 0-0.608 0.064-0.448 0.064-0.768 0.128l-0.704 0.224q-0.608 0.192-0.736 0.192-0.416-0.096-0.512-0.576v-0.128q0-0.384 0.32-0.544 0.064-0.032 0.288-0.096 0.192-0.064 0.32-0.064 0.032-0.032 0.192-0.128l0.288-0.096q0.128-0.032 0.448-0.096 0.288-0.032 0.416-0.064 0.288-0.064 0.832-0.128 0.032-0.032 0.16-0.064 0.096-0.032 0.16-0.032 0.224-0.064 0.768-0.032 0.544 0.064 0.768 0.032 0.16 0 0.448-0.032t0.512-0.032q0.224-0.064 0.384-0.064h0.064z"></path>
</svg>
